<svg xmlns="http://www.w3.org/2000/svg" viewBox="0 0 100 120" role="img" aria-label="Vyntrax">
  <defs>
    <linearGradient id="g-fill" x1="0" y1="0" x2="100" y2="120" gradientUnits="userSpaceOnUse">
      <stop offset="0%" stop-color="#00E8EB" />
      <stop offset="50%" stop-color="#00CED1" />
      <stop offset="100%" stop-color="#009EA0" />
    </linearGradient>
    <filter id="vglow" x="-40%" y="-40%" width="180%" height="180%" color-interpolation-filters="sRGB">
      <feGaussianBlur in="SourceGraphic" stdDeviation="2" result="blur" />
      <feColorMatrix
        in="blur"
        type="matrix"
        values="0 0 0 0 0
                0 0 0 0 0.85
                0 0 0 0 0.84
                0 0 0 0.85 0"
        result="colorBlur"
      />
      <feMerge>
        <feMergeNode in="colorBlur" />
        <feMergeNode in="SourceGraphic" />
      </feMerge>
    </filter>
  </defs>
  <style>
    .inner-cut {
      fill: #ffffff;
    }
    @media (prefers-color-scheme: dark) {
      .inner-cut {
        fill: #0a0a0a;
      }
    }
  </style>
  <path
    d="M4 4 L50 108 L96 4 L82 4 L50 80 L18 4 Z"
    fill="url(#g-fill)"
    filter="url(#vglow)"
    opacity="0.95"
  />
  <path class="inner-cut" d="M22 10 L50 74 L78 10 L70 10 L50 62 L30 10 Z" />
  <line x1="24" y1="12" x2="37" y2="42" stroke="#00CED1" stroke-width="1.2" stroke-linecap="round" opacity="0.55" />
  <line x1="37" y1="42" x2="37" y2="36" stroke="#00CED1" stroke-width="1.2" stroke-linecap="round" opacity="0.55" />
  <circle cx="37" cy="36" r="1.8" fill="#00CED1" opacity="0.55" />
  <line x1="30" y1="12" x2="41" y2="38" stroke="#00E8EB" stroke-width="1" stroke-linecap="round" opacity="0.4" />
  <line x1="76" y1="12" x2="63" y2="42" stroke="#00CED1" stroke-width="1.2" stroke-linecap="round" opacity="0.55" />
  <line x1="63" y1="42" x2="63" y2="36" stroke="#00CED1" stroke-width="1.2" stroke-linecap="round" opacity="0.55" />
  <circle cx="63" cy="36" r="1.8" fill="#00CED1" opacity="0.55" />
  <line x1="70" y1="12" x2="59" y2="38" stroke="#00E8EB" stroke-width="1" stroke-linecap="round" opacity="0.4" />
  <line x1="86" y1="4" x2="100" y2="4" stroke="url(#g-fill)" stroke-width="2.5" stroke-linecap="round" opacity="0.85" />
  <line x1="88" y1="10" x2="100" y2="10" stroke="url(#g-fill)" stroke-width="2" stroke-linecap="round" opacity="0.65" />
  <circle cx="50" cy="108" r="2.2" fill="#00E8EB" opacity="0.75" />
</svg>
